<svg xmlns="http://www.w3.org/2000/svg" viewBox="0 0 1119 840"
     style="shape-rendering:geometricPrecision;text-rendering:geometricPrecision;image-rendering:optimizeQuality;fill-rule:evenodd;clip-rule:evenodd">
    <path style="opacity:1" fill="#445f39" d="M394.5 6.5a432.434 432.434 0 0 0-71 1c23.617-4.815 47.284-5.148 71-1z"/>
    <path style="opacity:1" fill="#1a3f0d"
          d="M394.5 6.5a98.087 98.087 0 0 1 21 3c.111.617.444 1.117 1 1.5 1.973.495 3.973.662 6 .5 3.098.256 6.098.922 9 2 4.13 2.824 8.797 4.49 14 5a210.162 210.162 0 0 1 31 13c.321 1.548 1.321 2.215 3 2 25.411 14.223 47.078 32.89 65 56-.073 1.527.594 2.527 2 3 16.717 21.771 28.383 46.105 35 73-.09 2.652.576 4.985 2 7 1.746 5.072 2.746 10.405 3 16-.056 5.231.611 10.231 2 15 2.702 25.418 1.368 50.751-4 76-.768.763-1.268 1.763-1.5 3a18.453 18.453 0 0 1-.5-6c2.158-36.39-5.676-70.39-23.5-102-18.038-27.87-42.872-46.87-74.5-57 0-.667-.333-1-1-1-.751-1.073-1.751-1.24-3-.5.971 1.481 2.304 2.315 4 2.5a5.727 5.727 0 0 1 3 1c.321 1.548 1.321 2.215 3 2 21.642 11.308 36.975 28.308 46 51 .322 1.975.322 3.642 0 5-23.197-17.349-49.364-26.349-78.5-27-43.792-1.106-80.459 14.56-110 47-29.381 36.439-48.881 77.772-58.5 124-1.78 1.49-2.446 3.49-2 6-55.936-40.492-91.936-94.492-108-162a284.881 284.881 0 0 0-4-22c-2.997-23.747-2.664-47.414 1-71 28.909-23.627 61.242-41.294 97-53 4.665-.557 8.998-1.89 13-4 11.916-4.059 24.25-6.725 37-8a432.434 432.434 0 0 1 71-1z"/>
    <path style="opacity:1" fill="#3f5f33"
          d="M415.5 9.5c2.567.221 4.901.888 7 2a18.437 18.437 0 0 1-6-.5c-.556-.383-.889-.883-1-1.5z"/>
    <path style="opacity:1" fill="#38592d" d="M431.5 13.5a86.723 86.723 0 0 1 14 5c-5.203-.51-9.87-2.176-14-5z"/>
    <path style="opacity:1" fill="#335427" d="M286.5 15.5c-4.002 2.11-8.335 3.443-13 4 4.002-2.11 8.335-3.443 13-4z"/>
    <path style="opacity:1" fill="#48663d" d="M476.5 31.5c1.21.432 2.21 1.099 3 2-1.679.215-2.679-.452-3-2z"/>
    <path style="opacity:1" fill="#317718"
          d="M176.5 72.5c-3.664 23.586-3.997 47.253-1 71a70.422 70.422 0 0 0 2 19.5c.184 1.376.851 2.209 2 2.5 16.064 67.508 52.064 121.508 108 162 0 .667.333 1 1 1 15.272 10.805 31.605 19.805 49 27 2.798 3.214 6.465 4.547 11 4a563.326 563.326 0 0 0 37 10c3.529 1.923 7.529 2.589 12 2 39.876 4.878 79.542 3.545 119-4a46.996 46.996 0 0 0 16-2c1.213-.247 1.88-.914 2-2a10166.717 10166.717 0 0 1 120-39.5 527.776 527.776 0 0 1 54-12.5c7.578.686 14.578-.647 21-4h2c7.354.136 14.688-.197 22-1 2.14-.056 3.806-.723 5-2 18.279-2.422 36.612-2.422 55 0 2.583.724 5.249 1.557 8 2.5 8.08.56 16.08 1.393 24 2.5 34.104 6.807 65.77 19.474 95 38 .221 1.235.888 2.235 2 3a87.074 87.074 0 0 0 17 10c49.66 35.978 89.32 80.645 119 134-1.67-1.333-3.33-2.667-5-4-29.99-32.832-65.66-57.499-107-74-1.681-1.508-3.681-2.508-6-3a58.404 58.404 0 0 1-12-5c-39.253-18.073-80.587-28.407-124-31-2.131-.814-4.464-1.314-7-1.5-27.144-1.758-53.81.408-80 6.5h-1a175.824 175.824 0 0 0-15 2.5c-8.301 1.902-16.301 4.402-24 7.5-9.049 1.685-17.716 4.352-26 8a608.243 608.243 0 0 0-85 38.5 3298.095 3298.095 0 0 0-118 70 646.095 646.095 0 0 1-70 30.5 249.51 249.51 0 0 0-30 9c-1.599-.268-2.932.066-4 1a47085.632 47085.632 0 0 0-46 9c-2.779-.221-5.446.112-8 1a779.45 779.45 0 0 1-64 2 425.713 425.713 0 0 1-69-9.5C115.569 535.743 67.403 500.576 33 446.5c-13.833-24.989-21.666-51.656-23.5-80 17.924-119.892 73.59-217.892 167-294z"/>
    <path style="opacity:1" fill="#47653c" d="M544.5 89.5c1.406.473 2.073 1.473 2 3-1.406-.473-2.073-1.473-2-3z"/>
    <path style="opacity:1" fill="#54714a"
          d="M483.5 116.5c.667 0 1 .333 1 1v1c-1.696-.185-3.029-1.019-4-2.5 1.249-.74 2.249-.573 3 .5z"/>
    <path style="opacity:1" fill="#47653c" d="M487.5 119.5c1.21.432 2.21 1.099 3 2-1.679.215-2.679-.452-3-2z"/>
    <path style="opacity:1" fill="#2b6a15"
          d="M175.5 143.5a284.881 284.881 0 0 1 4 22c-1.149-.291-1.816-1.124-2-2.5a70.422 70.422 0 0 1-2-19.5z"/>
    <path style="opacity:1" fill="#3b5b2f" d="M581.5 165.5c1.424 2.015 2.09 4.348 2 7-1.424-2.015-2.09-4.348-2-7z"/>
    <path style="opacity:1" fill="#3d5d31"
          d="M536.5 172.5a68.771 68.771 0 0 1 3 6.5c-1.498.585-2.498.085-3-1.5.322-1.358.322-3.025 0-5z"/>
    <path style="opacity:1" fill="#345628" d="M586.5 188.5c1.389 4.769 2.056 9.769 2 15-1.389-4.769-2.056-9.769-2-15z"/>
    <path style="opacity:1" fill="#3f5f34"
          d="M582.5 276.5a18.453 18.453 0 0 0 .5 6c.232-1.237.732-2.237 1.5-3a138.002 138.002 0 0 1-3.5 16c-.207-6.513.293-12.846 1.5-19z"/>
    <path style="opacity:.008" fill="#758e6c" d="M579.5 298.5c1.333.667 1.333.667 0 0z"/>
    <path style="opacity:1" fill="#45842e"
          d="M758.5 304.5c-1.194 1.277-2.86 1.944-5 2a172.173 172.173 0 0 1-22 1c8.78-1.713 17.78-2.713 27-3z"/>
    <path style="opacity:1" fill="#4b8835"
          d="M813.5 304.5c10.94.752 21.606 2.418 32 5a346.288 346.288 0 0 0-24-2.5 147.318 147.318 0 0 0-8-2.5z"/>
    <path style="opacity:1" fill="#498633" d="M729.5 307.5c-6.422 3.353-13.422 4.686-21 4a227.789 227.789 0 0 1 21-4z"/>
    <path style="opacity:1" fill="#48683c"
          d="M289.5 321.5a21.435 21.435 0 0 0-1 7c-.667 0-1-.333-1-1-.446-2.51.22-4.51 2-6z"/>
    <path style="opacity:1" fill="#468530"
          d="M940.5 347.5a190.77 190.77 0 0 1 19 13 87.074 87.074 0 0 1-17-10c-1.112-.765-1.779-1.765-2-3z"/>
    <path style="opacity:1" fill="#4a8733" d="M337.5 355.5c3.883.959 7.55 2.292 11 4-4.535.547-8.202-.786-11-4z"/>
    <path style="opacity:1" fill="#46842f"
          d="M534.5 363.5c-.12 1.086-.787 1.753-2 2a46.996 46.996 0 0 1-16 2 142.763 142.763 0 0 1 18-4z"/>
    <path style="opacity:1" fill="#4d8937" d="M385.5 369.5c4.205.217 8.205.883 12 2-4.471.589-8.471-.077-12-2z"/>
    <path style="opacity:1" fill="#47a923"
          d="M9.5 366.5c1.834 28.344 9.667 55.011 23.5 80 34.403 54.076 82.569 89.243 144.5 105.5a425.713 425.713 0 0 0 69 9.5 306.133 306.133 0 0 0 64-2c2.554-.888 5.221-1.221 8-1a379.111 379.111 0 0 1 23-2.5 353.987 353.987 0 0 1 22-5c.556-.383.889-.883 1-1.5 1.068-.934 2.401-1.268 4-1 10.368-2.088 20.368-5.088 30-9a646.095 646.095 0 0 0 70-30.5 3298.095 3298.095 0 0 1 118-70 608.243 608.243 0 0 1 85-38.5 196.466 196.466 0 0 0 26-8 1288.84 1288.84 0 0 0 36-8 44.093 44.093 0 0 0 3-2h1a446.28 446.28 0 0 1 87-5c43.413 2.593 84.747 12.927 124 31a561.402 561.402 0 0 0-26-6c-7.367-2.46-15.034-4.294-23-5.5-27.317-4.113-54.317-3.28-81 2.5-4.927.819-9.594 2.152-14 4-7.165 1.165-13.831 3.498-20 7-26.108 10.95-49.442 26.117-70 45.5a441.019 441.019 0 0 0-24.5 25.5 2199.278 2199.278 0 0 0-47 64c-41.076 52.761-90.91 94.928-149.5 126.5-52.714 27.513-108.714 40.18-168 38a60.756 60.756 0 0 1 6 3.5c130.44 88.552 265.106 95.219 404 20-106.502 80.311-226.502 113.478-360 99.5-68.964-7.767-134.297-27.434-196-59C81.107 713.49 23.607 625.656 7 510.5a211.66 211.66 0 0 1-2.5-27 1386.935 1386.935 0 0 1-1-59c.007-8.74.674-17.407 2-26 1.722-7.437 2.722-15.104 3-23a41.743 41.743 0 0 1 1-9z"/>
    <path style="opacity:1" fill="#3e951e"
          d="M824.5 377.5a446.28 446.28 0 0 0-87 5c26.19-6.092 52.856-8.258 80-6.5 2.536.186 4.869.686 7 1.5z"/>
    <path style="opacity:1" fill="#60b341" d="M8.5 375.5c-.278 7.896-1.278 15.563-3 23 .278-7.896 1.278-15.563 3-23z"/>
    <path style="opacity:1" fill="#419c20"
          d="M736.5 382.5a44.093 44.093 0 0 1-3 2 1288.84 1288.84 0 0 1-36 8c7.699-3.098 15.699-5.598 24-7.5a175.824 175.824 0 0 1 15-2.5z"/>
    <path style="opacity:1" fill="#3f971e" d="M697.5 392.5a196.466 196.466 0 0 1-26 8c8.284-3.648 16.951-6.315 26-8z"/>
    <path style="opacity:1" fill="#65d63c"
          d="M922.5 402.5a561.402 561.402 0 0 1 26 6 58.404 58.404 0 0 0 12 5c1.411 2.039 3.411 3.039 6 3 41.34 16.501 77.01 41.168 107 74 1.04 2.556 2.71 4.723 5 6.5-.59.464-1.26.631-2 .5-24-17.669-51-27.002-81-28-4.488-.666-9.154-.999-14-1-7.23-.167-14.23.499-21 2a148.195 148.195 0 0 0-35 7c-5.666.89-11 2.557-16 5-4.644 1.099-8.978 2.766-13 5-25.214 9.933-48.547 22.933-70 39a240.85 240.85 0 0 0-23 17.5c-36.355 34.681-70.189 71.515-101.5 110.5-63.01 68.354-141.177 99.52-234.5 93.5-47.365-3.675-92.699-15.175-136-34.5a60.756 60.756 0 0 0-6-3.5c59.286 2.18 115.286-10.487 168-38 58.59-31.572 108.424-73.739 149.5-126.5a2199.278 2199.278 0 0 1 47-64 441.019 441.019 0 0 1 24.5-25.5c20.558-19.383 43.892-34.55 70-45.5a128.255 128.255 0 0 0 20-7c4.406-1.848 9.073-3.181 14-4a749.41 749.41 0 0 1 43.5-4 355.622 355.622 0 0 1 60.5 7z"/>
    <path style="opacity:1" fill="#5ac632"
          d="M922.5 402.5a355.622 355.622 0 0 0-60.5-7 749.41 749.41 0 0 0-43.5 4c26.683-5.78 53.683-6.613 81-2.5 7.966 1.206 15.633 3.04 23 5.5zM804.5 403.5a128.255 128.255 0 0 1-20 7c6.169-3.502 12.835-5.835 20-7z"/>
    <path style="opacity:1" fill="#4eb02b" d="M960.5 413.5c2.319.492 4.319 1.492 6 3-2.589.039-4.589-.961-6-3z"/>
    <path style="opacity:1" fill="#409221"
          d="M995.5 469.5a511.301 511.301 0 0 0-35 1c6.77-1.501 13.77-2.167 21-2 4.846.001 9.512.334 14 1z"/>
    <path style="opacity:1" fill="#317718"
          d="M995.5 469.5c30 .998 57 10.331 81 28a18.414 18.414 0 0 0 6 4c27.74 38.631 38.07 81.631 31 129-.62.111-1.12.444-1.5 1a46.522 46.522 0 0 0-1.5 11c-9.76 43.043-34.09 74.876-73 95.5-39.528 16.175-78.528 15.008-117-3.5 1.052-1.756 2.719-2.423 5-2a176.212 176.212 0 0 0 48 .5c19.873-3.873 31.71-15.707 35.5-35.5 4.59-102.074-43.908-158.574-145.5-169.5a419.252 419.252 0 0 0-37-1.5c21.453-16.067 44.786-29.067 70-39a12.93 12.93 0 0 0 5-.5c2.912-1.232 5.578-2.732 8-4.5 5.666-.89 11-2.557 16-5a148.195 148.195 0 0 1 35-7 511.301 511.301 0 0 1 35-1z"/>
    <path style="opacity:1" fill="#64af49"
          d="M3.5 424.5c-.085 19.676.248 39.343 1 59-1.46-11.967-2.127-24.134-2-36.5 0-7.674.334-15.174 1-22.5z"/>
    <path style="opacity:1" fill="#3e9121" d="M925.5 477.5c-5 2.443-10.334 4.11-16 5 5-2.443 10.334-4.11 16-5z"/>
    <path style="opacity:1" fill="#3c8c1f"
          d="M909.5 482.5c-2.422 1.768-5.088 3.268-8 4.5a12.93 12.93 0 0 1-5 .5c4.022-2.234 8.356-3.901 13-5z"/>
    <path style="opacity:1" fill="#5cb93a"
          d="M1073.5 490.5c1.67 1.333 3.33 2.667 5 4 2.09 1.836 3.42 4.169 4 7a18.414 18.414 0 0 1-6-4c.74.131 1.41-.036 2-.5-2.29-1.777-3.96-3.944-5-6.5z"/>
    <path style="opacity:1" fill="#3f981f" d="M398.5 539.5c-9.632 3.912-19.632 6.912-30 9a249.51 249.51 0 0 1 30-9z"/>
    <path style="opacity:1" fill="#419d20"
          d="M364.5 549.5c-.111.617-.444 1.117-1 1.5a353.987 353.987 0 0 0-22 5c-7.701.6-15.368 1.434-23 2.5 15.201-2.982 30.534-5.982 46-9z"/>
    <path style="opacity:1" fill="#429e20" d="M310.5 559.5a306.133 306.133 0 0 1-64 2 779.45 779.45 0 0 0 64-2z"/>
    <path style="opacity:1" fill="#508b3a"
          d="M1113.5 630.5c-.51 4.236-1.51 8.236-3 12 .06-3.72.56-7.386 1.5-11 .38-.556.88-.889 1.5-1z"/>
    <path style="opacity:.008" fill="#85c76c" d="M736.5 731.5c1.333.667 1.333.667 0 0z"/>
    <path style="opacity:1" fill="#498632"
          d="M925.5 732.5c-2.281-.423-3.948.244-5 2l-9-4.5c-1.196-.654-1.196-1.154 0-1.5 4.783 1.358 9.45 2.692 14 4z"/>
    <path style="opacity:1" fill="#68ba4c" d="M736.5 732.5c-.667.667-.667.667 0 0z"/>
</svg>