<svg xmlns="http://www.w3.org/2000/svg" viewBox="0 0 300 225">
    <path fill="#47A923"
          d="M134 11c13.512 10.102 21.326 22.883 24.5 39.387 1.395 10.078.535 19.69-1.5 29.613h-2l.105-2.86c.266-12.615-1.093-23.816-9.105-34.14-2.084-1.743-2.084-1.743-4-3l1.563 2.813C145 46 145 46 144 49l-1.688-1.023c-9.351-5.466-18.084-7.443-28.921-5.512-10.394 2.727-18.885 9.03-24.42 18.248C83.985 69.513 80.648 77.977 79 88c13.005 6.93 24.952 11.136 39.938 11.25l1.955.063c13.01.098 25.532-3.83 37.7-8.014 29.023-9.918 58.788-16.697 87.72-2.549 23.127 12.004 42.756 33.958 51.914 58.543 3.215 11.616 2.661 23.459-2.516 34.441-5.143 9.076-11.454 15.489-21.441 18.848-9.49 1.748-20.929 1.709-29.27-3.582l-1-2 3.98.14c1.736.038 3.472.075 5.208.11l2.619.102c4.254.065 6.55.046 10.244-2.243 4.08-4.416 3.26-9.42 3.16-15.144-.481-9.04-2.95-17.234-9.211-23.965-10.396-8.285-22.246-11.714-35.438-11.59-6.3 1.043-9.428 5.01-13.562 9.59a1999.35 1999.35 0 0 1-5.563 5.375 135.019 135.019 0 0 0-9.875 11.063C184.743 181.89 172.815 192.644 156 198l-2.664.902c-14.446 4.136-31.384 3.59-45.824-.246-2.563-.782-2.563-.782-5.512-.656 26.967 11.662 52.727 15.034 80.532 4.276 4.627-1.856 9.049-3.978 13.468-6.276h2v2c-1.43 1.126-1.43 1.126-3.445 2.355l-2.242 1.377c-.805.48-1.61.96-2.438 1.456l-2.497 1.496A714.75 714.75 0 0 1 180 209l-1.904 1.103c-29.742 16.88-67.35 18.53-99.915 9.99C59.953 215.033 44.24 207.776 30 195l-1.988-1.773C23.22 188.7 19.599 183.498 16 178l-1.563-2.266C-1.185 151.811-2.712 119.768 2.49 92.432c6.89-32.44 24.56-61.825 52.801-80.2C79.424-2.51 109.7-3.699 134 11Z"/>
    <path fill="#327719"
          d="M134 11c13.512 10.102 21.326 22.883 24.5 39.387 1.395 10.078.535 19.69-1.5 29.613h-2l.105-2.86c.266-12.615-1.093-23.816-9.105-34.14-2.084-1.743-2.084-1.743-4-3l1.563 2.813C145 46 145 46 144 49l-1.688-1.023c-9.351-5.466-18.084-7.443-28.921-5.512-10.394 2.727-18.885 9.03-24.42 18.248C83.985 69.513 80.648 77.977 79 88c13.005 6.93 24.952 11.136 39.938 11.25l1.955.063c13.01.098 25.532-3.83 37.7-8.014 29.023-9.918 58.788-16.697 87.72-2.549C264.144 98.005 281.488 113.384 290 132c-3.497-1.502-5.778-3.552-8.5-6.188-9.816-8.953-22.326-15.531-35.5-17.812v-2l-1.906-.367-2.594-.508-2.531-.492c-2.234-.476-4.446-1.057-6.64-1.688-5.014-1.264-9.934-1.246-15.079-1.195-1.463.01-1.463.01-2.955.018-6.94.096-13.523.65-20.295 2.232l-2.75.52c-18.342 3.862-36.199 14.28-51.85 24.29-27.721 17.682-57.202 25.854-90.213 20.127C32.46 145.142 18.674 135.082 9 121c-7.434-13.66-7.68-26.717-3.5-41.5C11.375 59.862 21.842 43.676 36 29l2.398-2.625C63.036.182 102.61-7.989 134 11Z"/>
    <path fill="#65D63C"
          d="M232.375 105.688c.834.005 1.669.01 2.528.017 6.452.126 12.04.997 18.097 3.295l3.645 1.29c12.501 4.572 21.743 11.587 31.355 20.71l2.094 1.914c7.696 8.422 10.416 20.09 10.152 31.195-1.018 11.962-5.6 22.166-14.383 30.422-9.044 7.13-19.787 7.52-30.863 6.469-3.602-.898-6.856-2.006-10-4l-1-2 3.98.14c1.736.038 3.472.075 5.208.11l2.619.102c4.254.065 6.55.046 10.244-2.243 4.08-4.416 3.26-9.42 3.16-15.144-.481-9.04-2.95-17.234-9.211-23.965-10.396-8.285-22.246-11.714-35.438-11.59-6.3 1.043-9.428 5.01-13.562 9.59a1999.35 1999.35 0 0 1-5.563 5.375 135.019 135.019 0 0 0-9.875 11.063C184.743 181.89 172.815 192.644 156 198l-2.664.902c-19.874 5.69-45.205 3.435-63.633-5.949L88 192v-2l2.938-.078c31.315-1.18 56.06-16.191 77.166-38.761 4.391-5.005 8.135-10.487 11.896-15.97 9.793-14.064 23.53-25.369 40.655-28.834 3.912-.596 7.768-.698 11.72-.67Z"/>
    <path fill="#1C400F"
          d="M134 11c13.512 10.102 21.326 22.883 24.5 39.387 1.395 10.078.535 19.69-1.5 29.613h-2l.105-2.86c.266-12.615-1.093-23.816-9.105-34.14-2.084-1.743-2.084-1.743-4-3l1.563 2.813C145 46 145 46 144 49l-1.688-1.023c-9.351-5.466-18.084-7.443-28.921-5.512-10.364 2.72-18.966 9.027-24.42 18.28C84.483 68.825 80.852 76.895 79 86c-1.668.77-1.668.77-4 1-13.417-9.143-23.193-25.363-27-41-.904-5.248-1.243-10.377-1.313-15.688l-.087-2.26c-.042-3.549-.023-5.545 2.295-8.322L51 18c.313-.682.626-1.364.95-2.066C55.806 8.835 69.737 5.347 77 3c19.468-5.519 39.852-2.373 57 8Z"/>
    <path fill="#33781A"
          d="m284 130 2.371.957c7.254 3.661 9.946 11.083 12.442 18.438 3.055 11.774 1.423 24.355-4.563 34.917-5.143 7.893-10.983 13.244-19.98 16.27-9.49 1.748-20.929 1.709-29.27-3.582l-1-2 3.98.14c1.736.038 3.472.075 5.208.11l2.619.102c4.254.065 6.55.046 10.244-2.243 4.08-4.416 3.26-9.42 3.16-15.144-.481-9.04-2.95-17.234-9.211-23.965-11.72-9.34-23.59-10.679-38-12 3.778-4.178 7.512-6.675 12.563-9.125l2.15-1.047c15.367-7.26 31.432-8.392 47.287-1.828Z"/>
    <path fill="#3B5A30" d="M157 47h1c2.099 11.018 1.24 22.08-1 33h-2l1-14h2l-1-19Z"/>
    <path fill="#59B13A"
          d="M198 196v2a91.525 91.525 0 0 1-5.5 3.625l-3.094 1.914L187 205l-1-2-3-1c2.123-1.005 4.248-2.004 6.375-3l3.586-1.688C196 196 196 196 198 196Z"/>
    <path fill="#4FAC2D" d="M181 203h5c-.75 1.938-.75 1.938-2 4-2.125.75-2.125.75-4 1l1-5Z"/>
</svg>